<?xml version="1.0" encoding="UTF-8" standalone="no"?>
<!-- Created with Inkscape (http://www.inkscape.org/) -->

<svg
   width="61.951878mm"
   height="64mm"
   viewBox="0 0 61.951878 64"
   version="1.1"
   id="svg1"
   xmlns="http://www.w3.org/2000/svg"
   xmlns:svg="http://www.w3.org/2000/svg">
  <defs
     id="defs1" />
  <g
     id="layer1"
     transform="translate(-1.0240619)">
    <path
       id="path292-5-6"
       style="fill:#ffffff;stroke-width:11.862;stroke-opacity:0.162409"
       d="m 28.807153,41.316182 v -1.914189 l -1e-6,-1.914191 -1.653646,0.957095 -1.653645,0.957096 1.653647,0.957094 z m 0,19.376526 V 39.401992 l -3.307292,10e-7 v 21.290716 z m 6.385693,-19.35868 v -1.914189 l 10e-7,-1.914191 1.653646,0.957095 1.653645,0.957096 -1.653647,0.957094 z m 0,19.376527 V 39.419838 l 3.307292,1e-6 V 60.710555 Z M 38.500138,64 l -13.000277,-10e-7 v -3.30729 H 38.500139 Z M 35.192847,22.683818 v 1.914189 l 10e-7,1.914191 1.653646,-0.957095 1.653645,-0.957096 -1.653647,-0.957094 z m 0,-19.3765265 V 24.598008 l 3.307292,-1e-6 V 3.3072913 Z M 28.807154,22.665972 v 1.914189 l -1e-6,1.914191 -1.653646,-0.957095 -1.653645,-0.957096 1.653647,-0.957094 z m 0,-19.3765268 V 24.580162 l -3.307292,-1e-6 V 3.289445 Z M 25.499862,0 38.500139,5.7875091e-7 V 3.3072909 l -13.000278,4e-7 z" />
    <path
       id="path292-5-6-4"
       style="fill:#ffffff;stroke-width:11.862;stroke-opacity:0.162409"
       d="m 22.348583,33.923111 1.657736,-0.957094 1.657738,-0.957096 -1.655692,-0.953552 -1.655692,-0.953551 -0.002,1.910647 z M 5.568019,43.611374 24.00632,32.966016 22.352673,30.101818 3.914373,40.747176 Z m 19.957956,-4.149167 1.657736,-0.957095 1.657738,-0.957094 -0.002,1.910647 -0.002,1.910646 -1.655691,-0.953553 z M 8.74541,49.15047 27.183712,38.505112 28.837357,41.369311 10.399056,52.014669 Z M 7.5503131,53.659392 1.050175,42.400821 3.914373,40.747176 10.414512,52.005747 Z m 34.1272179,-23.522289 -1.657737,0.957094 -1.657737,0.957096 1.655692,0.953552 1.655691,0.953551 0.002,-1.910647 z M 58.458095,20.448839 40.019794,31.094198 41.67344,33.958396 60.111741,23.313038 Z m -19.957956,4.149168 -1.657736,0.957095 -1.657738,0.957094 0.002,-1.910647 0.002,-1.910646 1.655691,0.953553 z M 55.280704,14.909744 36.842402,25.555102 35.188757,22.690903 53.627058,12.045545 Z m 1.195097,-4.508922 6.500138,11.258571 -2.864198,1.653645 -6.500139,-11.258571 z" />
    <path
       id="path292-5-6-4-6"
       style="fill:#ffffff;stroke-width:11.862;stroke-opacity:0.162409"
       d="m 22.32247,30.119257 1.657736,0.957094 1.657738,0.957096 -1.655692,0.953552 -1.655692,0.953551 -0.002,-1.910647 z M 5.541906,20.430994 23.980207,31.076352 22.32656,33.94055 3.88826,23.295192 Z m 19.957956,4.149167 1.657736,0.957095 1.657738,0.957094 -0.002,-1.910647 -0.002,-1.910646 -1.655691,0.953553 z M 8.719297,14.891898 27.157599,25.537256 28.811244,22.673057 10.372943,12.027699 Z M 7.5242,10.382976 1.0240619,21.641547 3.88826,23.295192 10.388399,12.036621 Z m 34.127218,23.522289 -1.657737,-0.957094 -1.657737,-0.957096 1.655692,-0.953552 1.655691,-0.953551 0.002,1.910647 z M 58.431982,43.593529 39.993681,32.94817 41.647327,30.083972 60.085628,40.72933 Z m -19.957956,-4.149168 -1.657736,-0.957095 -1.657738,-0.957094 0.002,1.910647 0.002,1.910646 1.655691,-0.953553 z m 16.780565,9.688263 -18.438302,-10.645358 -1.653645,2.864199 18.438301,10.645358 z m 1.195097,4.508922 6.500138,-11.258571 -2.864198,-1.653645 -6.500139,11.258571 z" />
  </g>
</svg>
